<svg width="32" height="32" viewBox="0 0 32 32" fill="none" xmlns="http://www.w3.org/2000/svg">
<path d="M29.3334 18.6666H28C28 13.5066 23.8267 9.33322 18.6667 9.33322H17.3334V7.63989C17.7389 7.40578 18.0756 7.06904 18.3096 6.66352C18.5437 6.25801 18.6668 5.79801 18.6667 5.3298C18.6666 4.86159 18.5432 4.40166 18.3089 3.99626C18.0747 3.59087 17.7378 3.2543 17.3322 3.0204C16.9266 2.7865 16.4665 2.66352 15.9983 2.66382C15.5301 2.66412 15.0702 2.78769 14.6649 3.02211C14.2596 3.25653 13.9232 3.59353 13.6894 3.99922C13.4557 4.40492 13.3329 4.86501 13.3334 5.33322C13.3334 6.31989 13.8667 7.18655 14.6667 7.63989V9.33322H13.3334C8.17337 9.33322 4.00004 13.5066 4.00004 18.6666H2.66671C1.93337 18.6666 1.33337 19.2666 1.33337 19.9999V23.9999C1.33337 24.7332 1.93337 25.3332 2.66671 25.3332H4.00004V26.6666C4.00004 27.3738 4.28099 28.0521 4.78109 28.5522C5.28119 29.0523 5.95946 29.3332 6.66671 29.3332H25.3334C26.8134 29.3332 28 28.1466 28 26.6666V25.3332H29.3334C30.0667 25.3332 30.6667 24.7332 30.6667 23.9999V19.9999C30.6667 19.2666 30.0667 18.6666 29.3334 18.6666ZM13.0534 21.9999C12.5334 20.8266 11.3734 19.9999 10 19.9999C8.62671 19.9999 7.46671 20.8266 6.94671 21.9999C6.77337 21.5866 6.66671 21.1466 6.66671 20.6666C6.66671 19.7825 7.0179 18.9347 7.64302 18.3095C8.26814 17.6844 9.11599 17.3332 10 17.3332C10.8841 17.3332 11.7319 17.6844 12.3571 18.3095C12.9822 18.9347 13.3334 19.7825 13.3334 20.6666C13.3334 21.1466 13.2267 21.5866 13.0534 21.9999ZM25.0534 21.9999C24.5334 20.8266 23.3334 19.9999 22 19.9999C20.6667 19.9999 19.4667 20.8266 18.9467 21.9999C18.7734 21.5866 18.6667 21.1466 18.6667 20.6666C18.6667 19.7825 19.0179 18.9347 19.643 18.3095C20.2681 17.6844 21.116 17.3332 22 17.3332C22.8841 17.3332 23.7319 17.6844 24.3571 18.3095C24.9822 18.9347 25.3334 19.7825 25.3334 20.6666C25.3334 21.1466 25.2267 21.5866 25.0534 21.9999Z" fill="black"/>
</svg>
