<svg width="32" height="32" viewBox="0 0 32 32" fill="none" xmlns="http://www.w3.org/2000/svg">
    <path
        d="M4 25.942C4 28.1739 5.76327 30 7.91837 30H24.0816C26.2367 30 28 28.0725 28 25.8406V6.4297C28 5.1297 26.4099 4.5297 25.5155 5.4297L20.9736 10H11.1617L6.5 5.4297C5.6 4.5297 4 5.1297 4 6.4297V25.942Z"
        fill="url(#paint0_linear_135_557)" />
    <path
        d="M4 25.942C4 28.1739 5.76327 30 7.91837 30H24.0816C26.2367 30 28 28.0725 28 25.8406V6.4297C28 5.1297 26.4099 4.5297 25.5155 5.4297L20.9736 10H11.1617L6.5 5.4297C5.6 4.5297 4 5.1297 4 6.4297V25.942Z"
        fill="url(#paint1_linear_135_557)" />
    <path
        d="M4 25.942C4 28.1739 5.76327 30 7.91837 30H24.0816C26.2367 30 28 28.0725 28 25.8406V6.4297C28 5.1297 26.4099 4.5297 25.5155 5.4297L20.9736 10H11.1617L6.5 5.4297C5.6 4.5297 4 5.1297 4 6.4297V25.942Z"
        fill="url(#paint2_linear_135_557)" />
    <path
        d="M4 25.942C4 28.1739 5.76327 30 7.91837 30H24.0816C26.2367 30 28 28.0725 28 25.8406V6.4297C28 5.1297 26.4099 4.5297 25.5155 5.4297L20.9736 10H11.1617L6.5 5.4297C5.6 4.5297 4 5.1297 4 6.4297V25.942Z"
        fill="url(#paint3_linear_135_557)" />
    <path
        d="M4 25.942C4 28.1739 5.76327 30 7.91837 30H24.0816C26.2367 30 28 28.0725 28 25.8406V6.4297C28 5.1297 26.4099 4.5297 25.5155 5.4297L20.9736 10H11.1617L6.5 5.4297C5.6 4.5297 4 5.1297 4 6.4297V25.942Z"
        fill="url(#paint4_linear_135_557)" />
    <path
        d="M4 25.942C4 28.1739 5.76327 30 7.91837 30H24.0816C26.2367 30 28 28.0725 28 25.8406V6.4297C28 5.1297 26.4099 4.5297 25.5155 5.4297L20.9736 10H11.1617L6.5 5.4297C5.6 4.5297 4 5.1297 4 6.4297V25.942Z"
        fill="url(#paint5_radial_135_557)" />
    <g filter="url(#filter0_f_135_557)">
        <path
            d="M6.4182 21.8201H6.4172C5.66444 21.8201 5.0542 22.4303 5.0542 23.1831V24.1551C5.0542 24.9078 5.66444 25.5181 6.4172 25.5181H6.4182C7.17096 25.5181 7.7812 24.9078 7.7812 24.1551V23.1831C7.7812 22.4303 7.17096 21.8201 6.4182 21.8201Z"
            fill="#D67908" />
    </g>
    <g filter="url(#filter1_f_135_557)">
        <path
            d="M20.7509 10.2007C17.7676 10.3082 25.9774 15.1544 25.9774 15.1544L27.1024 6.09195C27.1571 5.63101 26.7383 5.13844 25.8524 5.96097C25.8524 5.96097 22.0259 9.72898 21.8388 9.91319C21.6517 10.0974 21.4308 10.1621 21.1372 10.2007C20.9876 10.2203 20.9016 10.1952 20.7509 10.2007Z"
            fill="url(#paint6_linear_135_557)" />
    </g>
    <path
        d="M6.13268 13.5034L8.93268 10.9034C9.25268 10.6034 9.25268 10.1234 8.93268 9.83344L5.918 7.15626C5.53518 6.82032 4.74268 6.9297 4.74268 7.76344V12.9634C4.74268 13.7969 5.62268 13.9834 6.13268 13.5034Z"
        fill="url(#paint7_linear_135_557)" />
    <g filter="url(#filter2_f_135_557)">
        <path
            d="M26.4911 5.65184C26.549 5.50816 26.6884 5.41406 26.8433 5.41406C27.0531 5.41406 27.2231 5.58411 27.2231 5.79388V8.03906L25.8057 7.35156L26.4911 5.65184Z"
            fill="url(#paint8_linear_135_557)" />
    </g>
    <g filter="url(#filter3_f_135_557)">
        <path d="M5.44629 5.72656L8.82125 8.9461C9.57536 9.66548 9.58949 10.8646 8.85254 11.6016"
            stroke="#FFDF70" stroke-linecap="round" />
    </g>
    <g filter="url(#filter4_f_135_557)">
        <path
            d="M14.8053 20.6501L14.8696 20.6351C15.3432 20.5246 15.8365 20.5298 16.3076 20.6501C16.8287 20.7482 17.1398 21.3455 16.6998 21.7755L16.149 22.3771C15.879 22.6471 15.2862 22.6471 15.0162 22.3771L14.4733 21.7755C14.024 21.2677 14.3053 20.7599 14.8053 20.6501Z"
            fill="url(#paint9_linear_135_557)" />
    </g>
    <path
        d="M15.2266 20.2066L15.2909 20.1916C15.7645 20.0811 16.2578 20.0862 16.729 20.2066C17.2501 20.3047 17.5611 20.902 17.1211 21.332L16.5704 21.9336C16.3004 22.2036 15.7076 22.2036 15.4376 21.9336L14.8946 21.332C14.4454 20.8242 14.7266 20.3164 15.2266 20.2066Z"
        fill="url(#paint10_radial_135_557)" />
    <g filter="url(#filter5_f_135_557)">
        <path
            d="M16.2698 21.015C16.6907 21.015 17.0318 20.8924 17.0318 20.741C17.0318 20.5897 16.6907 20.467 16.2698 20.467C15.849 20.467 15.5078 20.5897 15.5078 20.741C15.5078 20.8924 15.849 21.015 16.2698 21.015Z"
            fill="url(#paint11_linear_135_557)" />
    </g>
    <g filter="url(#filter6_f_135_557)">
        <path d="M24.7852 22.8923L28.5899 21.0798" stroke="url(#paint12_linear_135_557)"
            stroke-width="1.2" stroke-miterlimit="10" stroke-linecap="round" />
    </g>
    <g filter="url(#filter7_f_135_557)">
        <path d="M24.7852 24.9236L26.7118 26.2892" stroke="url(#paint13_linear_135_557)"
            stroke-width="1.2" stroke-miterlimit="10" stroke-linecap="round" />
    </g>
    <path d="M25.5664 22.5391L29.3711 20.7266" stroke="url(#paint14_linear_135_557)"
        stroke-width="1.2" stroke-miterlimit="10" stroke-linecap="round" />
    <g filter="url(#filter8_f_135_557)">
        <path d="M25.5664 22.7109L29.3711 20.8984" stroke="#FF8485" stroke-width="0.3"
            stroke-miterlimit="10" stroke-linecap="round" />
    </g>
    <g filter="url(#filter9_f_135_557)">
        <path
            d="M29.6706 20.7341C29.7643 20.6948 29.8116 20.5944 29.7761 20.5098C29.7407 20.4253 29.636 20.3886 29.5422 20.4279C29.4485 20.4672 29.4013 20.5676 29.4367 20.6521C29.4722 20.7367 29.5769 20.7734 29.6706 20.7341Z"
            fill="#FFDD86" />
    </g>
    <path d="M25.5635 24.6692L29.3651 26.4883" stroke="url(#paint15_linear_135_557)"
        stroke-width="1.2" stroke-miterlimit="10" stroke-linecap="round" />
    <g filter="url(#filter10_f_135_557)">
        <path d="M25.4985 24.5491L29.3001 26.3682" stroke="#FF8485" stroke-width="0.3"
            stroke-miterlimit="10" stroke-linecap="round" />
    </g>
    <g filter="url(#filter11_f_135_557)">
        <path
            d="M29.4612 26.5141C29.5506 26.5622 29.6584 26.5359 29.7019 26.4551C29.7453 26.3744 29.708 26.2699 29.6186 26.2217C29.5291 26.1736 29.4213 26.2 29.3778 26.2807C29.3344 26.3614 29.3717 26.4659 29.4612 26.5141Z"
            fill="#FFDD86" />
    </g>
    <path d="M6.52812 24.6809L2.72656 26.4999" stroke="url(#paint16_linear_135_557)"
        stroke-width="1.2" stroke-miterlimit="10" stroke-linecap="round" />
    <g filter="url(#filter12_f_135_557)">
        <path d="M6.59354 24.5608L2.79199 26.3799" stroke="#FF8485" stroke-width="0.3"
            stroke-miterlimit="10" stroke-linecap="round" />
    </g>
    <g filter="url(#filter13_f_135_557)">
        <path
            d="M6.59083 24.6616C6.49503 24.6277 6.44214 24.5301 6.47271 24.4437C6.50328 24.3573 6.60572 24.3147 6.70153 24.3486C6.79733 24.3824 6.85022 24.48 6.81965 24.5664C6.78908 24.6528 6.68664 24.6954 6.59083 24.6616Z"
            fill="#FFDD86" />
    </g>
    <path d="M6.53965 22.5244L2.72607 20.7307" stroke="url(#paint17_linear_135_557)"
        stroke-width="1.2" stroke-miterlimit="10" stroke-linecap="round" />
    <g filter="url(#filter14_f_135_557)">
        <path d="M6.67392 22.4989L2.86035 20.7051" stroke="#FF8485" stroke-width="0.3"
            stroke-miterlimit="10" stroke-linecap="round" />
    </g>
    <g filter="url(#filter15_f_135_557)">
        <path
            d="M6.59409 22.5607C6.55973 22.465 6.60182 22.3624 6.6881 22.3314C6.77438 22.3004 6.87218 22.3528 6.90654 22.4484C6.9409 22.5441 6.89881 22.6467 6.81253 22.6777C6.72625 22.7087 6.62845 22.6563 6.59409 22.5607Z"
            fill="#FFDD86" />
    </g>
    <g filter="url(#filter16_f_135_557)">
        <path
            d="M20.207 20.4672C19.7818 20.4672 19.4316 20.1241 19.4316 19.7076V18.2863C19.4316 17.8697 19.7818 17.5266 20.207 17.5266C20.6321 17.5266 20.9823 17.8697 20.9823 18.2863V19.7076C20.9823 20.1364 20.6321 20.4672 20.207 20.4672Z"
            fill="url(#paint18_linear_135_557)" />
    </g>
    <g filter="url(#filter17_f_135_557)">
        <path
            d="M10.33 20.1349C9.90483 20.1349 9.55469 19.7918 9.55469 19.3753V17.954C9.55469 17.5374 9.90483 17.1943 10.33 17.1943C10.7552 17.1943 11.1053 17.5374 11.1053 17.954V19.3753C11.1053 19.8041 10.7552 20.1349 10.33 20.1349Z"
            fill="url(#paint19_linear_135_557)" />
    </g>
    <g filter="url(#filter18_f_135_557)">
        <path
            d="M20.2072 18.0001C20.3375 18.0001 20.4432 17.8944 20.4432 17.7641C20.4432 17.6337 20.3375 17.5281 20.2072 17.5281C20.0769 17.5281 19.9712 17.6337 19.9712 17.7641C19.9712 17.8944 20.0769 18.0001 20.2072 18.0001Z"
            fill="#775B70" />
    </g>
    <g filter="url(#filter19_f_135_557)">
        <path
            d="M12.2648 18.0001C12.3951 18.0001 12.5008 17.8944 12.5008 17.7641C12.5008 17.6337 12.3951 17.5281 12.2648 17.5281C12.1345 17.5281 12.0288 17.6337 12.0288 17.7641C12.0288 17.8944 12.1345 18.0001 12.2648 18.0001Z"
            fill="#775B70" />
    </g>
    <g filter="url(#filter20_f_135_557)">
        <path d="M26.6871 10.1021H22.1021V24.2881H26.6871V10.1021Z"
            fill="url(#paint20_linear_135_557)" />
    </g>
    <path
        d="M25.833 13.5034L23.033 10.9034C22.713 10.6034 22.713 10.1234 23.033 9.83344L26.0477 7.15626C26.4305 6.82032 27.223 6.9297 27.223 7.76344V12.9634C27.223 13.7969 26.343 13.9834 25.833 13.5034Z"
        fill="#FFB915" />
    <path
        d="M25.833 13.5034L23.033 10.9034C22.713 10.6034 22.713 10.1234 23.033 9.83344L26.0477 7.15626C26.4305 6.82032 27.223 6.9297 27.223 7.76344V12.9634C27.223 13.7969 26.343 13.9834 25.833 13.5034Z"
        fill="url(#paint21_linear_135_557)" />
    <g filter="url(#filter21_f_135_557)">
        <path d="M26.6338 7.36719L23.0088 10.4922L26.5557 13.3047L26.6338 7.36719Z"
            fill="url(#paint22_radial_135_557)" />
    </g>
    <g filter="url(#filter22_f_135_557)">
        <path d="M23.7275 10.2891L26.2587 13.0234" stroke="url(#paint23_linear_135_557)"
            stroke-width="0.5" stroke-linecap="round" />
    </g>
    <g filter="url(#filter23_f_135_557)">
        <path d="M5.22314 7.49927V13.407L8.6919 10.3176L5.22314 7.49927Z" fill="#FEB33E" />
    </g>
    <g filter="url(#filter24_f_135_557)">
        <path d="M5.22314 7.72656V12.9141" stroke="#FFE7A3" stroke-width="0.15"
            stroke-linecap="round" />
    </g>
    <g filter="url(#filter25_f_135_557)">
        <path d="M18.7412 18.2869C19.499 18.2869 20.7187 17.9085 21.3281 16.1116" stroke="#D37C04"
            stroke-width="1.1" stroke-linecap="round" stroke-linejoin="round" />
    </g>
    <g filter="url(#filter26_f_135_557)">
        <path d="M12.3751 18.5078C11.6173 18.5078 9.83399 18.3122 9.22461 16.5154" stroke="#D37C04"
            stroke-width="1.1" stroke-linecap="round" stroke-linejoin="round" />
    </g>
    <path
        d="M10.9062 19.9794C10.481 19.9794 10.1309 19.6363 10.1309 19.2198V17.7985C10.1309 17.3819 10.481 17.0388 10.9062 17.0388C11.3313 17.0388 11.6815 17.3819 11.6815 17.7985V19.2198C11.6815 19.6486 11.3313 19.9794 10.9062 19.9794Z"
        fill="url(#paint24_linear_135_557)" />
    <path
        d="M10.9062 19.9794C10.481 19.9794 10.1309 19.6363 10.1309 19.2198V17.7985C10.1309 17.3819 10.481 17.0388 10.9062 17.0388C11.3313 17.0388 11.6815 17.3819 11.6815 17.7985V19.2198C11.6815 19.6486 11.3313 19.9794 10.9062 19.9794Z"
        fill="url(#paint25_linear_135_557)" />
    <path
        d="M20.8749 19.9794C20.4497 19.9794 20.0996 19.6363 20.0996 19.2198V17.7985C20.0996 17.3819 20.4497 17.0388 20.8749 17.0388C21.3001 17.0388 21.6502 17.3819 21.6502 17.7985V19.2198C21.6502 19.6486 21.3001 19.9794 20.8749 19.9794Z"
        fill="url(#paint26_linear_135_557)" />
    <path
        d="M20.8749 19.9794C20.4497 19.9794 20.0996 19.6363 20.0996 19.2198V17.7985C20.0996 17.3819 20.4497 17.0388 20.8749 17.0388C21.3001 17.0388 21.6502 17.3819 21.6502 17.7985V19.2198C21.6502 19.6486 21.3001 19.9794 20.8749 19.9794Z"
        fill="url(#paint27_linear_135_557)" />
    <path d="M19.2363 17.7522C19.9941 17.7522 21.4316 17.3772 22.041 15.5803"
        stroke="url(#paint28_radial_135_557)" stroke-width="1.1" stroke-linecap="round"
        stroke-linejoin="round" />
    <path d="M12.541 17.7522C11.7832 17.7522 10.3457 17.3772 9.73633 15.5803"
        stroke="url(#paint29_radial_135_557)" stroke-width="1.1" stroke-linecap="round"
        stroke-linejoin="round" />
    <g filter="url(#filter27_f_135_557)">
        <path d="M18.375 25.9084C19.6302 25.8459 21.3906 25.3147 21.7969 22.7834" stroke="#D37C04"
            stroke-linecap="round" />
    </g>
    <path d="M18.377 26.4944C19.6322 26.4319 22.1035 25.6272 22.3301 22.51"
        stroke="url(#paint30_radial_135_557)" stroke-linecap="round" />
    <defs>
        <filter id="filter0_f_135_557" x="3.5542" y="20.3201" width="5.72705" height="6.698"
            filterUnits="userSpaceOnUse" color-interpolation-filters="sRGB">
            <feFlood flood-opacity="0" result="BackgroundImageFix" />
            <feBlend mode="normal" in="SourceGraphic" in2="BackgroundImageFix" result="shape" />
            <feGaussianBlur stdDeviation="0.75" result="effect1_foregroundBlur_135_557" />
        </filter>
        <filter id="filter1_f_135_557" x="19.0981" y="4.5188" width="9.00879" height="11.6355"
            filterUnits="userSpaceOnUse" color-interpolation-filters="sRGB">
            <feFlood flood-opacity="0" result="BackgroundImageFix" />
            <feBlend mode="normal" in="SourceGraphic" in2="BackgroundImageFix" result="shape" />
            <feGaussianBlur stdDeviation="0.5" result="effect1_foregroundBlur_135_557" />
        </filter>
        <filter id="filter2_f_135_557" x="24.8057" y="4.41406" width="3.41748" height="4.625"
            filterUnits="userSpaceOnUse" color-interpolation-filters="sRGB">
            <feFlood flood-opacity="0" result="BackgroundImageFix" />
            <feBlend mode="normal" in="SourceGraphic" in2="BackgroundImageFix" result="shape" />
            <feGaussianBlur stdDeviation="0.5" result="effect1_foregroundBlur_135_557" />
        </filter>
        <filter id="filter3_f_135_557" x="2.94629" y="3.22656" width="8.94971" height="10.875"
            filterUnits="userSpaceOnUse" color-interpolation-filters="sRGB">
            <feFlood flood-opacity="0" result="BackgroundImageFix" />
            <feBlend mode="normal" in="SourceGraphic" in2="BackgroundImageFix" result="shape" />
            <feGaussianBlur stdDeviation="1" result="effect1_foregroundBlur_135_557" />
        </filter>
        <filter id="filter4_f_135_557" x="13.748" y="20.0559" width="3.66162" height="3.02368"
            filterUnits="userSpaceOnUse" color-interpolation-filters="sRGB">
            <feFlood flood-opacity="0" result="BackgroundImageFix" />
            <feBlend mode="normal" in="SourceGraphic" in2="BackgroundImageFix" result="shape" />
            <feGaussianBlur stdDeviation="0.25" result="effect1_foregroundBlur_135_557" />
        </filter>
        <filter id="filter5_f_135_557" x="14.9078" y="19.867" width="2.72393" height="1.7481"
            filterUnits="userSpaceOnUse" color-interpolation-filters="sRGB">
            <feFlood flood-opacity="0" result="BackgroundImageFix" />
            <feBlend mode="normal" in="SourceGraphic" in2="BackgroundImageFix" result="shape" />
            <feGaussianBlur stdDeviation="0.3" result="effect1_foregroundBlur_135_557" />
        </filter>
        <filter id="filter6_f_135_557" x="23.6851" y="19.9797" width="6.00488" height="4.0127"
            filterUnits="userSpaceOnUse" color-interpolation-filters="sRGB">
            <feFlood flood-opacity="0" result="BackgroundImageFix" />
            <feBlend mode="normal" in="SourceGraphic" in2="BackgroundImageFix" result="shape" />
            <feGaussianBlur stdDeviation="0.25" result="effect1_foregroundBlur_135_557" />
        </filter>
        <filter id="filter7_f_135_557" x="23.6851" y="23.8235" width="4.12695" height="3.56567"
            filterUnits="userSpaceOnUse" color-interpolation-filters="sRGB">
            <feFlood flood-opacity="0" result="BackgroundImageFix" />
            <feBlend mode="normal" in="SourceGraphic" in2="BackgroundImageFix" result="shape" />
            <feGaussianBlur stdDeviation="0.25" result="effect1_foregroundBlur_135_557" />
        </filter>
        <filter id="filter8_f_135_557" x="24.9165" y="20.2483" width="5.10449" height="3.11279"
            filterUnits="userSpaceOnUse" color-interpolation-filters="sRGB">
            <feFlood flood-opacity="0" result="BackgroundImageFix" />
            <feBlend mode="normal" in="SourceGraphic" in2="BackgroundImageFix" result="shape" />
            <feGaussianBlur stdDeviation="0.25" result="effect1_foregroundBlur_135_557" />
        </filter>
        <filter id="filter9_f_135_557" x="28.9248" y="19.9121" width="1.36328" height="1.33765"
            filterUnits="userSpaceOnUse" color-interpolation-filters="sRGB">
            <feFlood flood-opacity="0" result="BackgroundImageFix" />
            <feBlend mode="normal" in="SourceGraphic" in2="BackgroundImageFix" result="shape" />
            <feGaussianBlur stdDeviation="0.25" result="effect1_foregroundBlur_135_557" />
        </filter>
        <filter id="filter10_f_135_557" x="24.8486" y="23.8989" width="5.10156" height="3.11938"
            filterUnits="userSpaceOnUse" color-interpolation-filters="sRGB">
            <feFlood flood-opacity="0" result="BackgroundImageFix" />
            <feBlend mode="normal" in="SourceGraphic" in2="BackgroundImageFix" result="shape" />
            <feGaussianBlur stdDeviation="0.25" result="effect1_foregroundBlur_135_557" />
        </filter>
        <filter id="filter11_f_135_557" x="28.8599" y="25.6978" width="1.36035" height="1.34033"
            filterUnits="userSpaceOnUse" color-interpolation-filters="sRGB">
            <feFlood flood-opacity="0" result="BackgroundImageFix" />
            <feBlend mode="normal" in="SourceGraphic" in2="BackgroundImageFix" result="shape" />
            <feGaussianBlur stdDeviation="0.25" result="effect1_foregroundBlur_135_557" />
        </filter>
        <filter id="filter12_f_135_557" x="2.14209" y="23.9106" width="5.10156" height="3.11938"
            filterUnits="userSpaceOnUse" color-interpolation-filters="sRGB">
            <feFlood flood-opacity="0" result="BackgroundImageFix" />
            <feBlend mode="normal" in="SourceGraphic" in2="BackgroundImageFix" result="shape" />
            <feGaussianBlur stdDeviation="0.25" result="effect1_foregroundBlur_135_557" />
        </filter>
        <filter id="filter13_f_135_557" x="5.96387" y="23.8369" width="1.36426" height="1.33618"
            filterUnits="userSpaceOnUse" color-interpolation-filters="sRGB">
            <feFlood flood-opacity="0" result="BackgroundImageFix" />
            <feBlend mode="normal" in="SourceGraphic" in2="BackgroundImageFix" result="shape" />
            <feGaussianBlur stdDeviation="0.25" result="effect1_foregroundBlur_135_557" />
        </filter>
        <filter id="filter14_f_135_557" x="2.21045" y="20.0549" width="5.11328" height="3.09399"
            filterUnits="userSpaceOnUse" color-interpolation-filters="sRGB">
            <feFlood flood-opacity="0" result="BackgroundImageFix" />
            <feBlend mode="normal" in="SourceGraphic" in2="BackgroundImageFix" result="shape" />
            <feGaussianBlur stdDeviation="0.25" result="effect1_foregroundBlur_135_557" />
        </filter>
        <filter id="filter15_f_135_557" x="6.08203" y="21.8225" width="1.33643" height="1.36401"
            filterUnits="userSpaceOnUse" color-interpolation-filters="sRGB">
            <feFlood flood-opacity="0" result="BackgroundImageFix" />
            <feBlend mode="normal" in="SourceGraphic" in2="BackgroundImageFix" result="shape" />
            <feGaussianBlur stdDeviation="0.25" result="effect1_foregroundBlur_135_557" />
        </filter>
        <filter id="filter16_f_135_557" x="18.9316" y="17.0266" width="2.55078" height="3.94067"
            filterUnits="userSpaceOnUse" color-interpolation-filters="sRGB">
            <feFlood flood-opacity="0" result="BackgroundImageFix" />
            <feBlend mode="normal" in="SourceGraphic" in2="BackgroundImageFix" result="shape" />
            <feGaussianBlur stdDeviation="0.25" result="effect1_foregroundBlur_135_557" />
        </filter>
        <filter id="filter17_f_135_557" x="9.05469" y="16.6943" width="2.55078" height="3.94067"
            filterUnits="userSpaceOnUse" color-interpolation-filters="sRGB">
            <feFlood flood-opacity="0" result="BackgroundImageFix" />
            <feBlend mode="normal" in="SourceGraphic" in2="BackgroundImageFix" result="shape" />
            <feGaussianBlur stdDeviation="0.25" result="effect1_foregroundBlur_135_557" />
        </filter>
        <filter id="filter18_f_135_557" x="19.4712" y="17.0281" width="1.47217" height="1.47192"
            filterUnits="userSpaceOnUse" color-interpolation-filters="sRGB">
            <feFlood flood-opacity="0" result="BackgroundImageFix" />
            <feBlend mode="normal" in="SourceGraphic" in2="BackgroundImageFix" result="shape" />
            <feGaussianBlur stdDeviation="0.25" result="effect1_foregroundBlur_135_557" />
        </filter>
        <filter id="filter19_f_135_557" x="11.5288" y="17.0281" width="1.47217" height="1.47192"
            filterUnits="userSpaceOnUse" color-interpolation-filters="sRGB">
            <feFlood flood-opacity="0" result="BackgroundImageFix" />
            <feBlend mode="normal" in="SourceGraphic" in2="BackgroundImageFix" result="shape" />
            <feGaussianBlur stdDeviation="0.25" result="effect1_foregroundBlur_135_557" />
        </filter>
        <filter id="filter20_f_135_557" x="18.1021" y="6.10205" width="12.585" height="22.186"
            filterUnits="userSpaceOnUse" color-interpolation-filters="sRGB">
            <feFlood flood-opacity="0" result="BackgroundImageFix" />
            <feBlend mode="normal" in="SourceGraphic" in2="BackgroundImageFix" result="shape" />
            <feGaussianBlur stdDeviation="2" result="effect1_foregroundBlur_135_557" />
        </filter>
        <filter id="filter21_f_135_557" x="22.4088" y="6.76719" width="4.825" height="7.1375"
            filterUnits="userSpaceOnUse" color-interpolation-filters="sRGB">
            <feFlood flood-opacity="0" result="BackgroundImageFix" />
            <feBlend mode="normal" in="SourceGraphic" in2="BackgroundImageFix" result="shape" />
            <feGaussianBlur stdDeviation="0.3" result="effect1_foregroundBlur_135_557" />
        </filter>
        <filter id="filter22_f_135_557" x="22.7275" y="9.28906" width="4.53125" height="4.73438"
            filterUnits="userSpaceOnUse" color-interpolation-filters="sRGB">
            <feFlood flood-opacity="0" result="BackgroundImageFix" />
            <feBlend mode="normal" in="SourceGraphic" in2="BackgroundImageFix" result="shape" />
            <feGaussianBlur stdDeviation="0.375" result="effect1_foregroundBlur_135_557" />
        </filter>
        <filter id="filter23_f_135_557" x="4.72314" y="6.99927" width="4.46875" height="6.90771"
            filterUnits="userSpaceOnUse" color-interpolation-filters="sRGB">
            <feFlood flood-opacity="0" result="BackgroundImageFix" />
            <feBlend mode="normal" in="SourceGraphic" in2="BackgroundImageFix" result="shape" />
            <feGaussianBlur stdDeviation="0.25" result="effect1_foregroundBlur_135_557" />
        </filter>
        <filter id="filter24_f_135_557" x="4.64795" y="7.15161" width="1.15039" height="6.3374"
            filterUnits="userSpaceOnUse" color-interpolation-filters="sRGB">
            <feFlood flood-opacity="0" result="BackgroundImageFix" />
            <feBlend mode="normal" in="SourceGraphic" in2="BackgroundImageFix" result="shape" />
            <feGaussianBlur stdDeviation="0.25" result="effect1_foregroundBlur_135_557" />
        </filter>
        <filter id="filter25_f_135_557" x="17.2914" y="14.6615" width="5.48701" height="5.07539"
            filterUnits="userSpaceOnUse" color-interpolation-filters="sRGB">
            <feFlood flood-opacity="0" result="BackgroundImageFix" />
            <feBlend mode="normal" in="SourceGraphic" in2="BackgroundImageFix" result="shape" />
            <feGaussianBlur stdDeviation="0.45" result="effect1_foregroundBlur_135_557" />
        </filter>
        <filter id="filter26_f_135_557" x="6.67432" y="13.9653" width="8.25098" height="7.09253"
            filterUnits="userSpaceOnUse" color-interpolation-filters="sRGB">
            <feFlood flood-opacity="0" result="BackgroundImageFix" />
            <feBlend mode="normal" in="SourceGraphic" in2="BackgroundImageFix" result="shape" />
            <feGaussianBlur stdDeviation="1" result="effect1_foregroundBlur_135_557" />
        </filter>
        <filter id="filter27_f_135_557" x="17.125" y="21.5334" width="5.92188" height="5.625"
            filterUnits="userSpaceOnUse" color-interpolation-filters="sRGB">
            <feFlood flood-opacity="0" result="BackgroundImageFix" />
            <feBlend mode="normal" in="SourceGraphic" in2="BackgroundImageFix" result="shape" />
            <feGaussianBlur stdDeviation="0.375" result="effect1_foregroundBlur_135_557" />
        </filter>
        <linearGradient id="paint0_linear_135_557" x1="7.907" y1="1.35" x2="7.907" y2="30.99"
            gradientUnits="userSpaceOnUse">
            <stop offset="0.288" stop-color="#F2CC26" />
            <stop offset="0.762" stop-color="#E99E20" />
            <stop offset="0.993" stop-color="#E3821D" />
            <stop offset="1" stop-color="#E3801D" />
        </linearGradient>
        <linearGradient id="paint1_linear_135_557" x1="8.831" y1="12.033" x2="1.17" y2="12.033"
            gradientUnits="userSpaceOnUse">
            <stop stop-color="#E99E20" stop-opacity="0" />
            <stop offset="0.993" stop-color="#E3821D" />
            <stop offset="1" stop-color="#E3801D" />
        </linearGradient>
        <linearGradient id="paint2_linear_135_557" x1="26.791" y1="12.033" x2="30.245" y2="12.033"
            gradientUnits="userSpaceOnUse">
            <stop stop-color="#E99E20" stop-opacity="0" />
            <stop offset="0.993" stop-color="#E3821D" />
            <stop offset="1" stop-color="#E3801D" />
        </linearGradient>
        <linearGradient id="paint3_linear_135_557" x1="16.001" y1="-1.595" x2="16" y2="30.99"
            gradientUnits="userSpaceOnUse">
            <stop offset="0.771" stop-color="#F59639" stop-opacity="0" />
            <stop offset="1" stop-color="#FF63C4" />
        </linearGradient>
        <linearGradient id="paint4_linear_135_557" x1="16" y1="11.252" x2="16" y2="32.475"
            gradientUnits="userSpaceOnUse">
            <stop offset="0.854" stop-color="white" stop-opacity="0" />
            <stop offset="0.985" stop-color="white" />
        </linearGradient>
        <radialGradient id="paint5_radial_135_557" cx="0" cy="0" r="1"
            gradientUnits="userSpaceOnUse"
            gradientTransform="translate(22.175 4.47701) rotate(55.4546) scale(5.37103 10.6707)">
            <stop stop-color="#FFA720" />
            <stop offset="0.921" stop-color="#FFA720" stop-opacity="0" />
        </radialGradient>
        <linearGradient id="paint6_linear_135_557" x1="21.9081" y1="6.852" x2="28.1651" y2="13.695"
            gradientUnits="userSpaceOnUse">
            <stop stop-color="#FFA720" />
            <stop offset="1" stop-color="#FFA720" stop-opacity="0" />
        </linearGradient>
        <linearGradient id="paint7_linear_135_557" x1="10.6021" y1="10.617" x2="4.7431" y2="10.07"
            gradientUnits="userSpaceOnUse">
            <stop offset="0.437" stop-color="#ED8C1B" />
            <stop offset="1" stop-color="#FFB03A" />
        </linearGradient>
        <linearGradient id="paint8_linear_135_557" x1="27.0402" y1="4.961" x2="26.4442" y2="7.302"
            gradientUnits="userSpaceOnUse">
            <stop offset="0.286" stop-color="#FFE792" />
            <stop offset="1" stop-color="#FFDD65" stop-opacity="0" />
        </linearGradient>
        <linearGradient id="paint9_linear_135_557" x1="15.7509" y1="22.3509" x2="15.0789"
            y2="23.4449" gradientUnits="userSpaceOnUse">
            <stop stop-color="#E3900E" />
            <stop offset="1" stop-color="#EA9D26" stop-opacity="0" />
        </linearGradient>
        <radialGradient id="paint10_radial_135_557" cx="0" cy="0" r="1"
            gradientUnits="userSpaceOnUse"
            gradientTransform="translate(16.4461 21.18) rotate(-153.246) scale(2.11729 2.1298)">
            <stop stop-color="#EA088B" />
            <stop offset="1" stop-color="#E61E27" />
        </radialGradient>
        <linearGradient id="paint11_linear_135_557" x1="17.2038" y1="20.741" x2="15.6798"
            y2="20.741" gradientUnits="userSpaceOnUse">
            <stop stop-color="white" stop-opacity="0.9" />
            <stop offset="1" stop-color="white" stop-opacity="0" />
        </linearGradient>
        <linearGradient id="paint12_linear_135_557" x1="24.2901" y1="23.236" x2="28.0241" y2="21.32"
            gradientUnits="userSpaceOnUse">
            <stop stop-color="#E88105" />
            <stop offset="1" stop-color="#E37D02" stop-opacity="0" />
        </linearGradient>
        <linearGradient id="paint13_linear_135_557" x1="24.2901" y1="24.5801" x2="28.0241"
            y2="26.4951" gradientUnits="userSpaceOnUse">
            <stop offset="0.286" stop-color="#DE7D07" />
            <stop offset="0.818" stop-color="#E37D02" stop-opacity="0" />
        </linearGradient>
        <linearGradient id="paint14_linear_135_557" x1="25.2901" y1="22.945" x2="29.3711"
            y2="21.008" gradientUnits="userSpaceOnUse">
            <stop offset="0.156" stop-color="#D64A38" />
            <stop offset="1" stop-color="#FB7425" />
        </linearGradient>
        <linearGradient id="paint15_linear_135_557" x1="25.0739" y1="24.71" x2="29.1459" y2="26.665"
            gradientUnits="userSpaceOnUse">
            <stop offset="0.156" stop-color="#D64A38" />
            <stop offset="1" stop-color="#FB7425" />
        </linearGradient>
        <linearGradient id="paint16_linear_135_557" x1="7.01802" y1="24.7209" x2="2.94502"
            y2="26.6769" gradientUnits="userSpaceOnUse">
            <stop offset="0.156" stop-color="#D64A38" />
            <stop offset="1" stop-color="#FB7425" />
        </linearGradient>
        <linearGradient id="paint17_linear_135_557" x1="6.81792" y1="22.929" x2="2.72792"
            y2="21.012" gradientUnits="userSpaceOnUse">
            <stop offset="0.156" stop-color="#D64A38" />
            <stop offset="1" stop-color="#FB7425" />
        </linearGradient>
        <linearGradient id="paint18_linear_135_557" x1="21.464" y1="19.6791" x2="22.464"
            y2="23.1401" gradientUnits="userSpaceOnUse">
            <stop stop-color="#EC9611" />
            <stop offset="1" stop-color="#EA9D26" stop-opacity="0" />
        </linearGradient>
        <linearGradient id="paint19_linear_135_557" x1="11.5868" y1="19.3459" x2="12.5868"
            y2="22.8079" gradientUnits="userSpaceOnUse">
            <stop stop-color="#E89311" />
            <stop offset="1" stop-color="#EA9D26" stop-opacity="0" />
        </linearGradient>
        <linearGradient id="paint20_linear_135_557" x1="23.3521" y1="10.8381" x2="22.9561"
            y2="22.8891" gradientUnits="userSpaceOnUse">
            <stop offset="0.548" stop-color="#FFDD65" />
            <stop offset="1" stop-color="#FFDD65" stop-opacity="0" />
        </linearGradient>
        <linearGradient id="paint21_linear_135_557" x1="26.5401" y1="15.508" x2="25.2901"
            y2="12.039" gradientUnits="userSpaceOnUse">
            <stop stop-color="#EF8A47" />
            <stop offset="1" stop-color="#EF8A47" stop-opacity="0" />
        </linearGradient>
        <radialGradient id="paint22_radial_135_557" cx="0" cy="0" r="1"
            gradientUnits="userSpaceOnUse"
            gradientTransform="translate(22.8682 7.773) rotate(55.7389) scale(7.82686 9.38425)">
            <stop stop-color="#FFDF70" />
            <stop offset="1" stop-color="#FFDF70" stop-opacity="0" />
        </radialGradient>
        <linearGradient id="paint23_linear_135_557" x1="25.0551" y1="10.477" x2="25.0551" y2="12.82"
            gradientUnits="userSpaceOnUse">
            <stop offset="0.432" stop-color="#FFE7A3" />
            <stop offset="1" stop-color="#FFDF83" stop-opacity="0" />
        </linearGradient>
        <linearGradient id="paint24_linear_135_557" x1="13.835" y1="18.1041" x2="9.36596"
            y2="18.1041" gradientUnits="userSpaceOnUse">
            <stop stop-color="#432A3D" />
            <stop offset="0.568" stop-color="#684E61" />
            <stop offset="0.766" stop-color="#43253D" />
        </linearGradient>
        <linearGradient id="paint25_linear_135_557" x1="11.257" y1="17.9481" x2="11.257"
            y2="20.2451" gradientUnits="userSpaceOnUse">
            <stop offset="0.327" stop-color="#43253D" stop-opacity="0" />
            <stop offset="1" stop-color="#43253D" />
        </linearGradient>
        <linearGradient id="paint26_linear_135_557" x1="23.803" y1="18.1041" x2="19.335"
            y2="18.1041" gradientUnits="userSpaceOnUse">
            <stop stop-color="#432A3D" />
            <stop offset="0.568" stop-color="#684E61" />
            <stop offset="0.766" stop-color="#43253D" />
        </linearGradient>
        <linearGradient id="paint27_linear_135_557" x1="21.225" y1="17.9481" x2="21.225"
            y2="20.2451" gradientUnits="userSpaceOnUse">
            <stop offset="0.327" stop-color="#43253D" stop-opacity="0" />
            <stop offset="1" stop-color="#43253D" />
        </linearGradient>
        <radialGradient id="paint28_radial_135_557" cx="0" cy="0" r="1"
            gradientUnits="userSpaceOnUse"
            gradientTransform="translate(20.672 15.612) rotate(52.2065) scale(3.87548 8.54827)">
            <stop offset="0.117" stop-color="#483637" />
            <stop offset="0.276" stop-color="#503A4A" />
            <stop offset="0.479" stop-color="#482641" />
        </radialGradient>
        <radialGradient id="paint29_radial_135_557" cx="0" cy="0" r="1"
            gradientUnits="userSpaceOnUse"
            gradientTransform="translate(11.8359 16.264) rotate(128.706) scale(4.20971 7.45811)">
            <stop offset="0.177" stop-color="#483637" />
            <stop offset="0.276" stop-color="#503A4A" />
            <stop offset="0.385" stop-color="#482641" />
        </radialGradient>
        <radialGradient id="paint30_radial_135_557" cx="0" cy="0" r="1"
            gradientUnits="userSpaceOnUse"
            gradientTransform="translate(19.938 23.72) rotate(-49.0361) scale(9.10448 5.37414)">
            <stop offset="0.189" stop-color="#483637" />
            <stop offset="0.298" stop-color="#503A4A" />
            <stop offset="0.395" stop-color="#482641" />
        </radialGradient>
    </defs>
</svg>