<svg width="40" height="40" viewBox="0 0 40 40" fill="none" xmlns="http://www.w3.org/2000/svg">
    <path
        d="M8.16648 5.87418L8.17148 6.79215C8.23344 15.3782 12.0819 23.9793 19.6876 31.3282L20.1954 31.8189L20.7032 31.3282C28.263 23.996 32.1856 15.3882 32.2535 6.79207L32.2609 5.8766L31.3648 6.07426C25.0943 7.45809 15.3293 7.47449 9.06258 6.07426L8.16648 5.87402V5.87418ZM10.8155 8.41074L11.7091 8.61098C16.472 9.67504 23.9492 9.66277 28.7159 8.61098L29.6119 8.41316L29.6047 9.32863C29.5523 15.9628 26.5219 22.5987 20.7057 28.2398L20.2005 28.7304L19.6927 28.2398C13.8407 22.5857 10.8683 15.9543 10.8204 9.32863L10.8155 8.41074ZM28.1129 10.2053C23.3928 11.0836 17.0359 11.0948 12.3121 10.2076C12.5926 15.9189 15.1845 21.6318 20.1978 26.6798C25.1857 21.6403 27.8248 15.9177 28.113 10.2052L28.1129 10.2053ZM1.5332 20.8693L9.60945 33.8648L11.0084 29.8559L18.523 36.7431L10.447 23.7478L9.04797 27.7564L1.53328 20.8693L1.5332 20.8693ZM38.2935 20.8693L30.7763 27.7564L29.38 23.7479L21.3013 36.7431L28.816 29.8559L30.2149 33.8647L38.2935 20.869V20.8693Z"
        fill="currentColor" />
</svg>