<svg width="20" height="20" viewBox="0 0 20 20" fill="none" xmlns="http://www.w3.org/2000/svg">
<path fill-rule="evenodd" clip-rule="evenodd" d="M7.22253 7.84758C6.93986 7.84758 6.65995 7.90326 6.3988 8.01143C6.13765 8.1196 5.90036 8.27816 5.70048 8.47803C5.5006 8.67791 5.34205 8.9152 5.23388 9.17636C5.1257 9.43751 5.07003 9.71741 5.07003 10.0001C5.07003 10.2828 5.1257 10.5627 5.23388 10.8238C5.34205 11.085 5.5006 11.3223 5.70048 11.5221C5.90036 11.722 6.13765 11.8806 6.3988 11.9887C6.65995 12.0969 6.93986 12.1526 7.22253 12.1526H9.37503V7.84758H7.22253ZM9.37503 6.59758H7.22253C6.65154 6.59758 6.10394 6.37076 5.70018 5.96701C5.29643 5.56326 5.06961 5.01565 5.06961 4.44466C5.06961 3.87368 5.29643 3.32607 5.70018 2.92232C6.10394 2.51857 6.65154 2.29175 7.22253 2.29175H9.37503V6.59758ZM10.625 2.29175V6.59758H12.7775C13.3412 6.58649 13.878 6.35479 14.2727 5.95225C14.6674 5.54971 14.8885 5.00843 14.8885 4.44466C14.8885 3.8809 14.6674 3.33962 14.2727 2.93708C13.878 2.53454 13.3412 2.30284 12.7775 2.29175H10.625ZM12.7775 7.84675C12.2125 7.84668 11.6701 8.06876 11.2674 8.46507C10.8647 8.86139 10.634 9.40014 10.625 9.96508V10.0342C10.6319 10.4584 10.764 10.8711 11.0047 11.2204C11.2454 11.5698 11.5839 11.8402 11.9778 11.9978C12.3716 12.1553 12.8033 12.193 13.2185 12.106C13.6337 12.0191 14.014 11.8114 14.3115 11.509C14.6091 11.2066 14.8106 10.823 14.8909 10.4065C14.9711 9.98991 14.9265 9.55892 14.7626 9.16764C14.5987 8.77636 14.3229 8.44223 13.9697 8.20722C13.6165 7.97221 13.2017 7.8468 12.7775 7.84675ZM7.22253 13.4026C6.7966 13.4024 6.3802 13.5286 6.02597 13.7651C5.67175 14.0016 5.39562 14.3378 5.23251 14.7313C5.0694 15.1247 5.02664 15.5577 5.10963 15.9755C5.19263 16.3933 5.39765 16.777 5.69876 17.0783C5.99988 17.3795 6.38356 17.5847 6.80129 17.6678C7.21902 17.751 7.65203 17.7084 8.04555 17.5454C8.43907 17.3825 8.77542 17.1065 9.01207 16.7523C9.24872 16.3982 9.37503 15.9818 9.37503 15.5559V13.4026H7.22253Z" fill="#819A91"/>
</svg>
