<svg width="40" height="40" viewBox="0 0 40 40" fill="none" xmlns="http://www.w3.org/2000/svg">
    <path fill-rule="evenodd" clip-rule="evenodd"
        d="M19.7801 13.0123C16.5276 9.75735 12.4626 8.39485 9.28507 7.83735C7.9641 7.60357 6.62644 7.47649 5.28507 7.45735C4.77812 7.45058 4.27108 7.46309 3.76507 7.49485L3.67257 7.50235H3.64757L3.63757 7.50485H3.63257L2.68257 7.59485L2.52007 8.53485L2.51757 8.54735L2.51257 8.57735L2.49257 8.68985L2.43507 9.09735C2.16517 11.1968 2.09485 13.3171 2.22507 15.4298C2.47007 19.2073 3.49507 24.0149 6.83507 27.3549C10.1001 30.6199 14.0801 31.8923 17.1851 32.3573C18.5293 32.5591 19.889 32.6386 21.2476 32.5949V30.5199L11.6151 20.8823L13.3851 19.1124L21.2501 26.9824V14.8148C20.8201 14.1649 20.3301 13.5623 19.7801 13.0123ZM23.7501 18.2499V27.3999L27.9701 24.0248L29.5301 25.9749L23.7501 30.5998V32.5699C24.6642 32.5808 25.578 32.529 26.4851 32.4148C28.7576 32.1223 31.7101 31.3099 33.9051 29.1148C36.1201 26.8974 36.9726 23.5499 37.3101 20.9674C37.5089 19.4108 37.5742 17.84 37.5051 16.2723L37.5001 16.1924V16.1673L37.4976 16.1623L37.4226 15.1548L36.4276 15.0124H36.4176L36.3951 15.0073L36.3201 14.9973L36.0426 14.9648C34.6454 14.8235 33.2387 14.8 31.8376 14.8949C29.3951 15.0749 26.1751 15.7224 24.1001 17.8848L24.0001 17.9848L23.7501 18.2499Z"
        fill="currentColor" />
</svg>