<svg width="40" height="40" viewBox="0 0 40 40" fill="none" xmlns="http://www.w3.org/2000/svg">
    <g clip-path="url(#clip0_278_2)">
        <path
            d="M15 2.5C15.3315 2.5 15.6495 2.6317 15.8839 2.86612C16.1183 3.10054 16.25 3.41848 16.25 3.75V5H21.25C22.2446 5 23.1984 5.39509 23.9016 6.09835C24.6049 6.80161 25 7.75544 25 8.75V10.2075C24.7033 10.3125 24.4225 10.4592 24.1575 10.6475C23.5575 11.0725 23.1075 11.6725 22.8325 12.425L21.9575 15.105C21.8105 15.5477 21.5622 15.95 21.2325 16.28C20.9075 16.6075 20.505 16.8825 20.105 17.0075L17.3775 17.8825C16.885 18.0564 16.4367 18.3361 16.0639 18.702C15.6912 19.0678 15.4031 19.5109 15.22 20H8.75C7.75544 20 6.80161 19.6049 6.09835 18.9016C5.39509 18.1984 5 17.2446 5 16.25V8.75C5 7.75544 5.39509 6.80161 6.09835 6.09835C6.80161 5.39509 7.75544 5 8.75 5H13.75V3.75C13.75 3.41848 13.8817 3.10054 14.1161 2.86612C14.3505 2.6317 14.6685 2.5 15 2.5ZM17.425 24.62C16.8984 24.4445 16.4211 24.1463 16.0325 23.75H6.25C5.25544 23.75 4.30161 24.1451 3.59835 24.8483C2.89509 25.5516 2.5 26.5054 2.5 27.5V28.375C2.5 31.6375 4 34 6.385 35.4825C8.6975 36.92 11.775 37.5 15 37.5C18.2425 37.5 21.32 36.9225 23.63 35.4825C24.1567 35.1575 24.635 34.7883 25.065 34.375C24.9378 33.7015 25.0234 33.0051 25.31 32.3825C24.91 32.2825 24.535 32.1075 24.185 31.8575C23.5905 31.4221 23.1375 30.8213 22.8825 30.13L21.9825 27.4C21.7575 26.825 21.5325 26.5 21.2575 26.225C20.9218 25.9008 20.5202 25.6526 20.08 25.4975L17.425 24.62ZM11.25 14.375C11.7473 14.375 12.2242 14.1775 12.5758 13.8258C12.9275 13.4742 13.125 12.9973 13.125 12.5C13.125 12.0027 12.9275 11.5258 12.5758 11.1742C12.2242 10.8225 11.7473 10.625 11.25 10.625C10.7527 10.625 10.2758 10.8225 9.92417 11.1742C9.57254 11.5258 9.375 12.0027 9.375 12.5C9.375 12.9973 9.57254 13.4742 9.92417 13.8258C10.2758 14.1775 10.7527 14.375 11.25 14.375ZM20.625 12.5C20.625 12.0027 20.4275 11.5258 20.0758 11.1742C19.7242 10.8225 19.2473 10.625 18.75 10.625C18.2527 10.625 17.7758 10.8225 17.4242 11.1742C17.0725 11.5258 16.875 12.0027 16.875 12.5C16.875 12.9973 17.0725 13.4742 17.4242 13.8258C17.7758 14.1775 18.2527 14.375 18.75 14.375C19.2473 14.375 19.7242 14.1775 20.0758 13.8258C20.4275 13.4742 20.625 12.9973 20.625 12.5ZM27.195 13.205L28.065 15.8825C28.3348 16.6969 28.7914 17.4369 29.3982 18.0433C30.0051 18.6497 30.7454 19.1058 31.56 19.375L34.24 20.245L34.2925 20.26C34.499 20.3327 34.6779 20.4677 34.8044 20.6464C34.9309 20.825 34.9989 21.0386 34.9989 21.2575C34.9989 21.4764 34.9309 21.69 34.8044 21.8686C34.6779 22.0473 34.499 22.1823 34.2925 22.255L31.615 23.125C30.7999 23.3939 30.0591 23.8498 29.4518 24.4562C28.8445 25.0627 28.3876 25.8028 28.1175 26.6175L27.2475 29.2925C27.1748 29.499 27.0398 29.6779 26.8611 29.8044C26.6825 29.9309 26.4689 29.9989 26.25 29.9989C26.0311 29.9989 25.8175 29.9309 25.6389 29.8044C25.4602 29.6779 25.3252 29.499 25.2525 29.2925L24.3825 26.6175C24.0699 25.6704 23.5056 24.8261 22.75 24.175C22.2036 23.7006 21.569 23.3387 20.8825 23.11L18.2025 22.24C17.996 22.1673 17.8171 22.0323 17.6906 21.8536C17.5641 21.675 17.4961 21.4614 17.4961 21.2425C17.4961 21.0236 17.5641 20.81 17.6906 20.6314C17.8171 20.4527 17.996 20.3177 18.2025 20.245L20.8825 19.375C21.6874 19.0988 22.4172 18.6397 23.0145 18.0337C23.6119 17.4276 24.0605 16.6913 24.325 15.8825L25.195 13.2075C25.2672 13.0001 25.4021 12.8203 25.5811 12.6931C25.76 12.5659 25.9742 12.4976 26.1937 12.4976C26.4133 12.4976 26.6275 12.5659 26.8064 12.6931C26.9854 12.8203 27.1203 13.0001 27.1925 13.2075M39.455 33.035L37.5425 32.415C36.9608 32.2216 36.432 31.8955 35.9981 31.4625C35.5642 31.0294 35.237 30.5014 35.0425 29.92L34.4225 28.0075C34.3707 27.8598 34.2744 27.7319 34.1467 27.6414C34.0191 27.5509 33.8665 27.5022 33.71 27.5022C33.5535 27.5022 33.4009 27.5509 33.2733 27.6414C33.1456 27.7319 33.0493 27.8598 32.9975 28.0075L32.3725 29.92C32.1823 30.4968 31.8616 31.022 31.4354 31.4547C31.0091 31.8875 30.4889 32.2161 29.915 32.415L28.0025 33.035C27.8924 33.0742 27.7929 33.1383 27.7118 33.2224C27.6306 33.3064 27.57 33.4081 27.5346 33.5194C27.4993 33.6308 27.4902 33.7488 27.508 33.8643C27.5259 33.9797 27.5702 34.0895 27.6375 34.185C27.7275 34.31 27.855 34.41 28.0025 34.46L29.915 35.0825C30.4978 35.2769 31.0273 35.6045 31.4612 36.0393C31.8952 36.4742 32.2218 37.0043 32.415 37.5875L33.035 39.4975C33.0868 39.6452 33.1831 39.7731 33.3108 39.8636C33.4384 39.9541 33.591 40.0028 33.7475 40.0028C33.904 40.0028 34.0566 39.9541 34.1842 39.8636C34.3119 39.7731 34.4082 39.6452 34.46 39.4975L35.0825 37.5875C35.2764 37.006 35.6031 36.4775 36.0365 36.044C36.47 35.6106 36.9985 35.2839 37.58 35.09L39.4925 34.47C39.6402 34.4182 39.7681 34.3219 39.8586 34.1942C39.9491 34.0666 39.9978 33.914 39.9978 33.7575C39.9978 33.601 39.9491 33.4484 39.8586 33.3208C39.7681 33.1931 39.6402 33.0968 39.4925 33.045L39.455 33.035Z"
            fill="currentColor" />
    </g>
    <defs>
        <clipPath id="clip0_278_2">
            <rect width="40" height="40" fill="white" />
        </clipPath>
    </defs>
</svg>