<svg width="32" height="32" viewBox="0 0 32 32" fill="none" xmlns="http://www.w3.org/2000/svg">
<path d="M16 1.33331L4 6.66665V14.6666C4 22.0666 9.12 28.9866 16 30.6666C22.88 28.9866 28 22.0666 28 14.6666V6.66665L16 1.33331ZM16 11.8533C18.1333 11.8533 19.8533 13.5733 19.8533 15.7066C19.8533 17.84 18.1333 19.56 16 19.56C13.8667 19.56 12.1467 17.8266 12.1467 15.7066C12.1467 13.5866 13.88 11.8533 16 11.8533ZM16 7.99998L17.84 10.6666C17.28 10.4266 16.6667 10.3066 16 10.3066C15 10.3066 14.7333 10.4266 14.16 10.6666L16 7.99998ZM9.33333 11.8533L12.5333 11.5866C12.08 12 11.6533 12.4533 11.3333 13.0133C11 13.5733 10.8 14.16 10.6667 14.7733L9.33333 11.8533ZM9.33333 19.56L10.7067 16.6666C10.8133 17.24 11.0267 17.84 11.3333 18.4C11.6667 18.9733 12.08 19.4533 12.5333 19.84L9.33333 19.56ZM22.6667 11.8533L21.3333 14.7733C21.2 14.16 20.9867 13.5733 20.6667 13.0133C20.3467 12.4533 19.9333 12 19.4667 11.5733L22.6667 11.8533ZM22.6667 19.56L19.4667 19.8266C19.92 19.44 20.3333 18.96 20.6667 18.4C20.9867 17.84 21.1867 17.24 21.2933 16.6666L22.6667 19.56ZM16 23.4L14.1467 20.76C14.72 20.96 15.3333 21.0933 16 21.0933C16.6667 21.0933 17.2667 20.96 17.8267 20.76L16 23.4Z" fill="white"/>
</svg>
