<svg width="32" height="32" viewBox="0 0 32 32" fill="none" xmlns="http://www.w3.org/2000/svg">
<path d="M16 1.33325L4 6.66659V14.6666C4 22.0666 9.12 28.9866 16 30.6666C22.88 28.9866 28 22.0666 28 14.6666V6.66659L16 1.33325ZM21.2933 19.2133C18.84 22.1066 14.3467 21.9999 12 19.1199C9.09333 15.4933 11.1467 10.1599 15.6 9.33325C16.0533 9.26659 16.44 9.70659 16.28 10.1466C15.6667 11.7866 15.76 13.6666 16.7067 15.2933C17.1517 16.066 17.763 16.7301 18.4963 17.2374C19.2297 17.7447 20.0667 18.0826 20.9467 18.2266C21.4 18.2933 21.6 18.8533 21.2933 19.2133Z" fill="#819A91"/>
</svg>
