<svg width="32" height="32" viewBox="0 0 32 32" fill="none" xmlns="http://www.w3.org/2000/svg">
<path fill-rule="evenodd" clip-rule="evenodd" d="M2.66675 5.33325H22.6667V9.33325H17.3334V21.3333H14.0001V23.9999H16.0001V26.6666H9.33337V23.9999H11.3334V21.3333H2.66675V5.33325ZM16.0001 10.6416L11.3334 7.94663L6.66675 10.6416V16.0313L11.3334 18.7263L16.0001 16.0313V10.6416ZM8.00006 15.2616V12.1224L10.6667 13.6614V16.8016L8.00006 15.2616ZM12.0001 16.8016V13.6614L14.6667 12.1224V15.2616L12.0001 16.8016ZM11.3334 9.48631L13.9493 10.9969L11.3334 12.5067L8.7175 10.9969L11.3334 9.48631ZM29.3334 27.9999V10.6666H18.6667V27.9999H29.3334ZM21.3334 13.3333H26.6667V15.9999H21.3334V13.3333ZM21.3334 17.3333V25.3333H26.6667V17.3333H21.3334ZM22.6667 22.6666H25.3334V19.9999H22.6667V22.6666Z" fill="black"/>
</svg>
