<svg width="20" height="20" viewBox="0 0 20 20" fill="none" xmlns="http://www.w3.org/2000/svg">
<g clip-path="url(#clip0_70_43)">
<mask id="mask0_70_43" style="mask-type:luminance" maskUnits="userSpaceOnUse" x="0" y="0" width="20" height="20">
<path d="M0 0H20V20H0V0Z" fill="white"/>
</mask>
<g mask="url(#mask0_70_43)">
<path d="M9.92833 0C4.85 0 5.16667 2.21333 5.16667 2.21333L5.1725 4.50667H10.0175V5.195H3.25C3.25 5.195 0 4.82417 0 9.97417C0 15.1242 2.83583 14.9408 2.83583 14.9408H4.5275V12.5517C4.5275 12.5517 4.43667 9.70167 7.31917 9.70167H12.1242C12.1242 9.70167 14.8242 9.745 14.8242 7.07833V2.66833C14.8242 2.66833 15.2342 0 9.92833 0ZM7.25667 1.54167C7.73833 1.54167 8.12833 1.93333 8.12833 2.41833C8.12833 2.9025 7.73833 3.29417 7.25667 3.29417C6.775 3.29417 6.385 2.9025 6.385 2.41833C6.385 1.93333 6.77417 1.54167 7.25667 1.54167Z" fill="#819A91"/>
<path d="M10.0726 20C15.1493 20 14.8326 17.7867 14.8326 17.7867L14.8268 15.4933H9.98178V14.805H16.7509C16.7509 14.805 20.0009 15.1758 20.0009 10.0258C20.0009 4.87583 17.1643 5.05916 17.1643 5.05916H15.4726V7.44833C15.4726 7.44833 15.5634 10.2983 12.6809 10.2983H7.87678C7.87678 10.2983 5.17678 10.255 5.17678 12.9217V17.3317C5.17678 17.3317 4.76678 20 10.0726 20ZM12.7443 18.4583C12.2618 18.4583 11.8726 18.0667 11.8726 17.5817C11.8726 17.0975 12.2618 16.7058 12.7443 16.7058C13.2259 16.7058 13.6159 17.0975 13.6159 17.5817C13.6159 18.0667 13.2259 18.4583 12.7443 18.4583Z" fill="#819A91"/>
</g>
</g>
<defs>
<clipPath id="clip0_70_43">
<rect width="20" height="20" fill="white"/>
</clipPath>
</defs>
</svg>
