<svg width="20" height="20" viewBox="0 0 20 20" fill="none" xmlns="http://www.w3.org/2000/svg">
    <path
        d="M10.0001 8.42503C10.8584 8.42503 11.5584 9.12503 11.5584 10C11.5584 10.8334 10.8584 11.5417 10.0001 11.5417C9.14175 11.5417 8.44175 10.8334 8.44175 10C8.44175 9.12503 9.14175 8.42503 10.0001 8.42503ZM6.14175 16.6667C6.66675 16.9834 7.81675 16.5 9.14175 15.25C8.70841 14.7584 8.28341 14.225 7.88341 13.6667C7.21193 13.602 6.54434 13.5018 5.88341 13.3667C5.45841 15.15 5.61675 16.375 6.14175 16.6667ZM6.73341 11.8834L6.49175 11.4584C6.40008 11.7 6.30841 11.9417 6.25008 12.175C6.47508 12.225 6.72508 12.2667 6.98341 12.3084L6.73341 11.8834ZM12.1834 11.25L12.8584 10L12.1834 8.75003C11.9334 8.30837 11.6667 7.9167 11.4251 7.52503C10.9751 7.50003 10.5001 7.50003 10.0001 7.50003C9.50008 7.50003 9.02508 7.50003 8.57508 7.52503C8.33341 7.9167 8.06675 8.30837 7.81675 8.75003L7.14175 10L7.81675 11.25C8.06675 11.6917 8.33341 12.0834 8.57508 12.475C9.02508 12.5 9.50008 12.5 10.0001 12.5C10.5001 12.5 10.9751 12.5 11.4251 12.475C11.6667 12.0834 11.9334 11.6917 12.1834 11.25ZM10.0001 5.65003C9.84175 5.83337 9.67508 6.02503 9.50841 6.25003H10.4917C10.3251 6.02503 10.1584 5.83337 10.0001 5.65003ZM10.0001 14.35C10.1584 14.1667 10.3251 13.975 10.4917 13.75H9.50841C9.67508 13.975 9.84175 14.1667 10.0001 14.35ZM13.8501 3.33337C13.3334 3.0167 12.1834 3.50003 10.8584 4.75003C11.2917 5.2417 11.7167 5.77503 12.1167 6.33337C12.8001 6.40003 13.4751 6.50003 14.1167 6.63337C14.5417 4.85003 14.3834 3.62503 13.8501 3.33337ZM13.2667 8.1167L13.5084 8.5417C13.6001 8.30003 13.6917 8.05837 13.7501 7.82503C13.5251 7.77503 13.2751 7.73337 13.0167 7.6917L13.2667 8.1167ZM14.4751 2.2417C15.7001 2.9417 15.8334 4.78337 15.3167 6.93337C17.4334 7.55837 18.9584 8.5917 18.9584 10C18.9584 11.4084 17.4334 12.4417 15.3167 13.0667C15.8334 15.2167 15.7001 17.0584 14.4751 17.7584C13.2584 18.4584 11.6001 17.6584 10.0001 16.1334C8.40008 17.6584 6.74175 18.4584 5.51675 17.7584C4.30008 17.0584 4.16675 15.2167 4.68341 13.0667C2.56675 12.4417 1.04175 11.4084 1.04175 10C1.04175 8.5917 2.56675 7.55837 4.68341 6.93337C4.16675 4.78337 4.30008 2.9417 5.51675 2.2417C6.74175 1.5417 8.40008 2.3417 10.0001 3.8667C11.6001 2.3417 13.2584 1.5417 14.4751 2.2417ZM14.2334 10C14.5167 10.625 14.7667 11.25 14.9751 11.8834C16.7251 11.3584 17.7084 10.6084 17.7084 10C17.7084 9.3917 16.7251 8.6417 14.9751 8.1167C14.7667 8.75003 14.5167 9.37503 14.2334 10ZM5.76675 10C5.48341 9.37503 5.23341 8.75003 5.02508 8.1167C3.27508 8.6417 2.29175 9.3917 2.29175 10C2.29175 10.6084 3.27508 11.3584 5.02508 11.8834C5.23341 11.25 5.48341 10.625 5.76675 10ZM13.2667 11.8834L13.0167 12.3084C13.2751 12.2667 13.5251 12.225 13.7501 12.175C13.6917 11.9417 13.6001 11.7 13.5084 11.4584L13.2667 11.8834ZM10.8584 15.25C12.1834 16.5 13.3334 16.9834 13.8501 16.6667C14.3834 16.375 14.5417 15.15 14.1167 13.3667C13.4751 13.5 12.8001 13.6 12.1167 13.6667C11.7167 14.225 11.2917 14.7584 10.8584 15.25ZM6.73341 8.1167L6.98341 7.6917C6.72508 7.73337 6.47508 7.77503 6.25008 7.82503C6.30841 8.05837 6.40008 8.30003 6.49175 8.5417L6.73341 8.1167ZM9.14175 4.75003C7.81675 3.50003 6.66675 3.0167 6.14175 3.33337C5.61675 3.62503 5.45841 4.85003 5.88341 6.63337C6.54434 6.49824 7.21193 6.3981 7.88341 6.33337C8.28341 5.77503 8.70841 5.2417 9.14175 4.75003Z"
        fill="currentColor" />
</svg>