<svg width="24" height="24" viewBox="0 0 24 24" fill="none" xmlns="http://www.w3.org/2000/svg">
<path d="M12.0249 20.8L9.54989 23.25C9.36655 23.4333 9.13755 23.5293 8.86289 23.538C8.58822 23.5467 8.35055 23.4507 8.14989 23.25C7.96655 23.0667 7.87489 22.8333 7.87489 22.55C7.87489 22.2667 7.96655 22.0333 8.14989 21.85L11.3249 18.675C11.4249 18.575 11.5332 18.504 11.6499 18.462C11.7666 18.42 11.8916 18.3993 12.0249 18.4C12.1582 18.4007 12.2832 18.4217 12.3999 18.463C12.5166 18.5043 12.6249 18.575 12.7249 18.675L15.8999 21.85C16.0832 22.0333 16.1749 22.2627 16.1749 22.538C16.1749 22.8133 16.0832 23.0507 15.8999 23.25C15.6999 23.45 15.4626 23.55 15.1879 23.55C14.9132 23.55 14.6756 23.45 14.4749 23.25L12.0249 20.8ZM12.0249 15.8L9.54989 18.25C9.36655 18.4333 9.13755 18.5293 8.86289 18.538C8.58822 18.5467 8.35055 18.4507 8.14989 18.25C7.96655 18.0667 7.87489 17.8333 7.87489 17.55C7.87489 17.2667 7.96655 17.0333 8.14989 16.85L11.3249 13.675C11.4249 13.575 11.5332 13.504 11.6499 13.462C11.7666 13.42 11.8916 13.3993 12.0249 13.4C12.1582 13.4007 12.2832 13.4217 12.3999 13.463C12.5166 13.5043 12.6249 13.575 12.7249 13.675L15.8999 16.85C16.0832 17.0333 16.1749 17.2627 16.1749 17.538C16.1749 17.8133 16.0832 18.0507 15.8999 18.25C15.6999 18.45 15.4626 18.55 15.1879 18.55C14.9132 18.55 14.6756 18.45 14.4749 18.25L12.0249 15.8ZM12.0249 8.15L14.4749 5.7C14.6749 5.5 14.9126 5.4 15.1879 5.4C15.4632 5.4 15.7006 5.5 15.8999 5.7C16.0992 5.9 16.1992 6.13334 16.1999 6.4C16.2006 6.66667 16.1006 6.9 15.8999 7.1L12.7249 10.3C12.6249 10.4 12.5166 10.471 12.3999 10.513C12.2832 10.555 12.1582 10.5757 12.0249 10.575C11.8916 10.5743 11.7666 10.5537 11.6499 10.513C11.5332 10.4723 11.4249 10.4013 11.3249 10.3L8.12489 7.1C7.92489 6.9 7.82889 6.66267 7.83689 6.388C7.84489 6.11334 7.94922 5.87567 8.14989 5.675C8.35055 5.47434 8.58822 5.37434 8.86289 5.375C9.13755 5.37567 9.37489 5.47567 9.57489 5.675L12.0249 8.15ZM12.0249 3.15L14.4749 0.700003C14.6749 0.500003 14.9126 0.400003 15.1879 0.400003C15.4632 0.400003 15.7006 0.500003 15.8999 0.700003C16.0992 0.900003 16.1992 1.13334 16.1999 1.4C16.2006 1.66667 16.1006 1.9 15.8999 2.1L12.7249 5.3C12.6249 5.4 12.5166 5.471 12.3999 5.513C12.2832 5.555 12.1582 5.57567 12.0249 5.575C11.8916 5.57434 11.7666 5.55367 11.6499 5.513C11.5332 5.47234 11.4249 5.40134 11.3249 5.3L8.12489 2.1C7.92489 1.9 7.82889 1.66267 7.83689 1.388C7.84489 1.11334 7.94922 0.87567 8.14989 0.675003C8.35055 0.474337 8.58822 0.374337 8.86289 0.375003C9.13755 0.37567 9.37489 0.47567 9.57489 0.675003L12.0249 3.15Z" fill="white"/>
</svg>
