<svg width="24" height="24" viewBox="0 0 24 24" fill="none" xmlns="http://www.w3.org/2000/svg">
<path d="M12.025 21.1499L14.5 18.6749C14.7 18.4749 14.9333 18.3789 15.2 18.3869C15.4666 18.3949 15.7 18.4993 15.9 18.6999C16.0833 18.8999 16.179 19.1333 16.187 19.3999C16.195 19.6666 16.0993 19.8999 15.9 20.0999L12.725 23.2749C12.625 23.3749 12.5166 23.4459 12.4 23.4879C12.2833 23.5299 12.1583 23.5506 12.025 23.5499C11.8916 23.5493 11.7666 23.5286 11.65 23.4879C11.5333 23.4473 11.425 23.3763 11.325 23.2749L8.14995 20.0999C7.96662 19.9166 7.87062 19.6876 7.86195 19.4129C7.85329 19.1383 7.94929 18.9006 8.14995 18.6999C8.33329 18.5166 8.56662 18.4249 8.84996 18.4249C9.13329 18.4249 9.36662 18.5166 9.54995 18.6999L12.025 21.1499ZM12.025 16.1499L14.5 13.6749C14.7 13.4749 14.9333 13.3793 15.2 13.3879C15.4666 13.3966 15.7 13.5006 15.9 13.6999C16.0833 13.8999 16.179 14.1333 16.187 14.3999C16.195 14.6666 16.0993 14.8999 15.9 15.0999L12.725 18.2749C12.625 18.3749 12.5166 18.4459 12.4 18.4879C12.2833 18.5299 12.1583 18.5506 12.025 18.5499C11.8916 18.5493 11.7666 18.5286 11.65 18.4879C11.5333 18.4473 11.425 18.3763 11.325 18.2749L8.14995 15.0999C7.96662 14.9166 7.87062 14.6876 7.86195 14.4129C7.85329 14.1383 7.94929 13.9006 8.14995 13.6999C8.33329 13.5166 8.56662 13.4249 8.84996 13.4249C9.13329 13.4249 9.36662 13.5166 9.54995 13.6999L12.025 16.1499ZM12.025 7.82492L9.54995 10.2999C9.34995 10.4999 9.11262 10.5959 8.83795 10.5879C8.56329 10.5799 8.32562 10.4756 8.12495 10.2749C7.92429 10.0743 7.82429 9.83692 7.82495 9.56292C7.82562 9.28892 7.92562 9.05125 8.12495 8.84992L11.325 5.67492C11.425 5.57492 11.5333 5.50392 11.65 5.46192C11.7666 5.41992 11.8916 5.39925 12.025 5.39992C12.1583 5.40058 12.2833 5.42125 12.4 5.46192C12.5166 5.50258 12.625 5.57358 12.725 5.67492L15.9 8.87492C16.1 9.07492 16.2 9.30825 16.2 9.57492C16.2 9.84158 16.1 10.0749 15.9 10.2749C15.7 10.4749 15.4623 10.5749 15.187 10.5749C14.9116 10.5749 14.6743 10.4749 14.475 10.2749L12.025 7.82492ZM12.025 2.82492L9.54995 5.29992C9.34995 5.49992 9.11262 5.59592 8.83795 5.58792C8.56329 5.57992 8.32562 5.47558 8.12495 5.27492C7.92429 5.07425 7.82429 4.83692 7.82495 4.56292C7.82562 4.28892 7.92562 4.05125 8.12495 3.84992L11.325 0.674918C11.425 0.574918 11.5333 0.504251 11.65 0.462918C11.7666 0.421584 11.8916 0.400584 12.025 0.399918C12.1583 0.399251 12.2833 0.420251 12.4 0.462918C12.5166 0.505584 12.625 0.576251 12.725 0.674918L15.9 3.87492C16.1 4.07492 16.2 4.30825 16.2 4.57492C16.2 4.84158 16.1 5.07492 15.9 5.27492C15.7 5.47492 15.4623 5.57492 15.187 5.57492C14.9116 5.57492 14.6743 5.47492 14.475 5.27492L12.025 2.82492Z" fill="white"/>
</svg>
