<svg width="32" height="32" viewBox="0 0 32 32" fill="none" xmlns="http://www.w3.org/2000/svg">
    <path
        d="M5.33329 28.0001C4.59996 28.0001 3.9724 27.7392 3.45063 27.2174C2.92885 26.6956 2.66751 26.0676 2.66663 25.3334V10.6667C2.66663 9.93341 2.92796 9.30586 3.45063 8.78408C3.97329 8.2623 4.60085 8.00097 5.33329 8.00008H10.6666V5.33341C10.6666 4.60008 10.928 3.97253 11.4506 3.45075C11.9733 2.92897 12.6008 2.66764 13.3333 2.66675H18.6666C19.4 2.66675 20.028 2.92808 20.5506 3.45075C21.0733 3.97341 21.3342 4.60097 21.3333 5.33341V8.00008H26.6666C27.4 8.00008 28.028 8.26141 28.5506 8.78408C29.0733 9.30675 29.3342 9.9343 29.3333 10.6667V25.3334C29.3333 26.0667 29.0724 26.6947 28.5506 27.2174C28.0288 27.7401 27.4008 28.001 26.6666 28.0001H5.33329ZM13.3333 8.00008H18.6666V5.33341H13.3333V8.00008Z"
        fill="currentColor" />
</svg>